<?xml version="1.0" encoding="utf-8"?>
<!-- Generator: Adobe Illustrator 27.6.1, SVG Export Plug-In . SVG Version: 6.00 Build 0)  -->
<svg version="1.1" id="Layer_1" xmlns="http://www.w3.org/2000/svg" xmlns:xlink="http://www.w3.org/1999/xlink" x="0px" y="0px"
	 viewBox="0 0 1760.4 431.2" style="enable-background:new 0 0 1760.4 431.2;" xml:space="preserve">
<style type="text/css">
	.st0{fill:#FFFFFF;}
</style>
<path class="st0" d="M356.7,19.9l-80.2,224v65.7h-26.3v-65.7L170,19.9H40.7v391.3h86.8v-195L92.9,105l24.7-8.7l112.8,315h66
	l112.8-315l24.7,8.7l-34.7,111.2v195H486V19.9H356.7z M1310.6,64.4c-21.2-15.7-45.9-27-74.3-34c-28.4-7-58.3-10.5-89.9-10.5h-130.2
	v391.3h141.9c29.3,0,57.3-4.2,84-12.7c26.7-8.5,50.3-20.9,70.7-37.3c20.4-16.4,36.6-36.7,48.7-60.8c12.1-24.1,18.1-52,18.1-83.7
	c0-35.7-6.2-66.1-18.6-91.2C1348.6,100.4,1331.8,80.1,1310.6,64.4L1310.6,64.4z M1278.6,268.4c-7.2,15.3-17.2,27.6-29.8,37
	c-12.6,9.4-27.5,16.1-44.8,20.2c-17.3,4.1-35.9,6.1-55.9,6.1H1103V99.5h51.2c18.2,0,35.5,2.3,52,6.9c16.5,4.6,30.9,11.5,43.1,20.7
	c12.2,9.2,22,20.9,29.2,35.1c7.2,14.2,10.9,30.9,10.9,50C1289.5,234.4,1285.9,253.1,1278.6,268.4L1278.6,268.4z M1528.8,331.7v-79.6
	h170.9v-79.6h-170.9v-73h190.9V19.9H1442v391.3h277.7v-79.6H1528.8z"/>
<ellipse class="st0" cx="745.3" cy="215.6" rx="217.1" ry="215.6"/>
</svg>
